# Blender 3.3.0
# www.blender.org
mtllib simpleArtifact1.mtl
o Cube
v 0.000000 1.000000 0.000000
v 1.000000 1.000000 0.000000
v 0.707107 1.000000 -0.707107
v -0.000000 1.000000 -1.000000
v -0.707107 1.000000 -0.707107
v -1.000000 1.000000 0.000000
v -0.707107 1.000000 0.707107
v 0.000000 1.000000 1.000000
v 0.707107 1.000000 0.707107
v 1.000000 -1.000000 0.000000
v 0.707107 -1.000000 -0.707107
v -0.000000 -1.000000 -1.000000
v -0.707107 -1.000000 -0.707107
v -1.000000 -1.000000 0.000000
v -0.707107 -1.000000 0.707107
v 0.000000 -1.000000 1.000000
v 0.707107 -1.000000 0.707107
v 0.000000 -1.000000 0.000000
v -0.898448 1.000000 1.169047
v -0.898448 -1.000000 1.169047
v -0.191342 -1.000000 1.461940
v -0.191342 1.000000 1.461940
v 0.707107 -1.500000 0.707107
v 0.000000 -1.500000 0.000000
v 1.000000 -1.500000 0.000000
vn -0.0000 1.0000 -0.0000
vn 0.9239 -0.0000 -0.3827
vn 0.3827 -0.0000 -0.9239
vn -0.3827 -0.0000 -0.9239
vn -0.9239 -0.0000 -0.3827
vn -0.9239 -0.0000 0.3827
vn -0.3827 -0.0000 0.9239
vn 0.3827 -0.0000 0.9239
vn 0.9239 -0.0000 0.3827
vn -0.0000 -1.0000 -0.0000
vn -0.7071 -0.0000 0.7071
vn -0.0000 -0.0000 -1.0000
vt 0.503627 0.571060
vt 0.903628 0.571060
vt 0.571060 0.954839
vt 0.786470 0.853903
vt 0.853903 0.954839
vt 0.786470 0.954839
vt 0.503627 0.971060
vt 0.503627 0.954839
vt 0.220785 0.853903
vt 0.220785 0.954839
vt 0.853903 0.954839
vt 0.103628 0.571060
vt 0.571060 0.954839
vt 0.288217 0.954839
vt 0.220785 0.288217
vt 0.503627 0.954839
vt 0.171060 0.954839
vt 0.503627 0.171060
vt 0.786470 0.288217
vt 0.786470 0.954839
vt 0.288217 0.954839
vt 0.903628 0.571060
vt 0.903628 0.154839
vt 0.571060 0.154839
vt 0.853903 0.154839
vt 0.786470 0.154839
vt 0.786470 0.853903
vt 0.503627 0.154839
vt 0.503627 0.971060
vt 0.220785 0.154839
vt 0.853903 0.154839
vt 0.220785 0.853903
vt 0.571060 0.154839
vt 0.103628 0.571060
vt 0.288217 0.154839
vt 0.220785 0.288217
vt 0.503627 0.154839
vt 0.503627 0.171060
vt 0.171060 0.154839
vt 0.786470 0.154839
vt 0.786470 0.288217
vt 0.288217 0.154839
vt 0.503627 0.571060
vt 0.571060 0.154839
vt 0.503627 0.154839
vt 0.144248 0.954839
vt 0.103441 0.954839
vt 0.144248 0.103441
vt 0.144248 0.154839
vt 0.103441 0.154839
vt 0.144248 0.103441
vt 0.427091 0.154839
vt 0.427091 -0.013716
vt -0.013716 0.154839
vt 0.427091 0.954839
vt -0.013716 0.954839
vt 0.427091 -0.013716
vt 0.786470 0.288217
vt 0.288217 -0.045161
vt 0.503627 0.571060
vt 0.571060 -0.045161
vt 0.503627 -0.045161
vt 0.903628 0.571060
vt 0.903628 -0.045161
vt 0.571060 -0.045161
s 0
usemtl Material.002
f 2/2/1 3/4/1 1/1/1
f 3/4/1 4/7/1 1/1/1
f 4/7/1 5/9/1 1/1/1
f 5/9/1 6/12/1 1/1/1
f 6/12/1 7/15/1 1/1/1
f 7/15/1 8/18/1 1/1/1
f 8/18/1 9/19/1 1/1/1
f 9/19/1 2/2/1 1/1/1
f 2/3/2 10/24/2 11/25/2 3/5/2
f 3/6/3 11/26/3 12/28/3 4/8/3
f 4/8/4 12/28/4 13/30/4 5/10/4
f 5/11/5 13/31/5 14/33/5 6/13/5
f 6/13/6 14/33/6 15/35/6 7/14/6
f 19/46/7 20/49/7 21/52/7 22/55/7
f 8/16/8 16/37/8 17/40/8 9/20/8
f 9/21/9 17/42/9 10/24/9 2/3/9
f 10/22/10 18/43/10 11/27/10
f 11/27/10 18/43/10 12/29/10
f 12/29/10 18/43/10 13/32/10
f 13/32/10 18/43/10 14/34/10
f 14/34/10 18/43/10 15/36/10
f 15/36/10 18/43/10 16/38/10
f 16/38/10 18/43/10 17/41/10
f 23/58/10 24/60/10 25/63/10
f 20/50/5 19/47/5 7/14/5 15/35/5
f 21/53/10 20/51/10 15/36/10 16/38/10
f 22/56/9 21/54/9 16/39/9 8/17/9
f 19/48/1 22/57/1 8/18/1 7/15/1
f 24/61/11 23/59/11 17/42/11 18/44/11
f 25/64/12 24/62/12 18/45/12 10/23/12
f 23/59/9 25/65/9 10/24/9 17/42/9
